<svg xmlns="http://www.w3.org/2000/svg" width="7680" height="2560" viewBox="0 0 7680 2560" role="img" aria-labelledby="title desc">
  <title id="title">CMB 8K Cosmic Hero Banner</title>
  <desc id="desc">Computational Metacognitive Bilingualism cosmic banner with Jupiter, flamingos, pyramids, glyphs, and human agency principles.</desc>
  <defs>
    <linearGradient id="space" x1="0" y1="0" x2="1" y2="1">
      <stop offset="0" stop-color="#03040a"/>
      <stop offset="0.46" stop-color="#0a0615"/>
      <stop offset="1" stop-color="#02050b"/>
    </linearGradient>
    <radialGradient id="nebula" cx="50%" cy="48%" r="60%">
      <stop offset="0" stop-color="#ff2a9d" stop-opacity=".42"/>
      <stop offset=".44" stop-color="#67146f" stop-opacity=".22"/>
      <stop offset="1" stop-color="#050713" stop-opacity="0"/>
    </radialGradient>
    <radialGradient id="planet" cx="38%" cy="30%" r="70%">
      <stop offset="0" stop-color="#f7b9a1"/>
      <stop offset=".22" stop-color="#c96b63"/>
      <stop offset=".5" stop-color="#835050"/>
      <stop offset=".72" stop-color="#3f2738"/>
      <stop offset="1" stop-color="#15111b"/>
    </radialGradient>
    <linearGradient id="jupiterBands" x1="0" y1="0" x2="0" y2="1">
      <stop offset="0" stop-color="#ffd7bc" stop-opacity=".7"/>
      <stop offset=".15" stop-color="#7b3f4d" stop-opacity=".75"/>
      <stop offset=".31" stop-color="#df8b76" stop-opacity=".72"/>
      <stop offset=".46" stop-color="#3a2434" stop-opacity=".8"/>
      <stop offset=".63" stop-color="#b45a62" stop-opacity=".74"/>
      <stop offset=".79" stop-color="#f2aa87" stop-opacity=".65"/>
      <stop offset="1" stop-color="#281926" stop-opacity=".8"/>
    </linearGradient>
    <linearGradient id="neon" x1="0" y1="0" x2="1" y2="0">
      <stop offset="0" stop-color="#ff4fb8"/>
      <stop offset=".42" stop-color="#ffd4eb"/>
      <stop offset=".7" stop-color="#ff57bc"/>
      <stop offset="1" stop-color="#65e7ff"/>
    </linearGradient>
    <linearGradient id="gold" x1="0" y1="0" x2="1" y2="0">
      <stop offset="0" stop-color="#8c5422"/>
      <stop offset=".5" stop-color="#ffe0a0"/>
      <stop offset="1" stop-color="#bd722b"/>
    </linearGradient>
    <filter id="glow" x="-100%" y="-100%" width="300%" height="300%">
      <feGaussianBlur stdDeviation="20" result="b"/>
      <feMerge><feMergeNode in="b"/><feMergeNode in="SourceGraphic"/></feMerge>
    </filter>
    <filter id="softGlow" x="-100%" y="-100%" width="300%" height="300%">
      <feGaussianBlur stdDeviation="9" result="b"/>
      <feMerge><feMergeNode in="b"/><feMergeNode in="SourceGraphic"/></feMerge>
    </filter>
    <clipPath id="planetClip"><circle cx="3840" cy="950" r="760"/></clipPath>
  </defs>

  <rect width="7680" height="2560" fill="url(#space)"/>
  <rect width="7680" height="2560" fill="url(#nebula)"/>

  <g fill="#fff">
    <circle cx="430" cy="225" r="7"/><circle cx="710" cy="530" r="4"/><circle cx="1050" cy="185" r="5"/>
    <circle cx="1420" cy="410" r="8"/><circle cx="1780" cy="255" r="4"/><circle cx="2125" cy="620" r="6"/>
    <circle cx="2530" cy="180" r="8"/><circle cx="2910" cy="460" r="5"/><circle cx="3280" cy="125" r="4"/>
    <circle cx="4370" cy="145" r="7"/><circle cx="4690" cy="520" r="4"/><circle cx="5130" cy="260" r="8"/>
    <circle cx="5580" cy="600" r="5"/><circle cx="6010" cy="190" r="6"/><circle cx="6460" cy="420" r="4"/>
    <circle cx="6920" cy="160" r="8"/><circle cx="7310" cy="540" r="5"/>
  </g>
  <g stroke="#ff4fb8" stroke-width="5" opacity=".8">
    <path d="M760 250h65M792 218v65"/><path d="M2280 340h80M2320 300v80"/>
    <path d="M5480 280h70M5515 245v70"/><path d="M7100 315h90M7145 270v90"/>
  </g>

  <g opacity=".75" stroke="#ff43b6" fill="none" filter="url(#softGlow)">
    <circle cx="1800" cy="620" r="330" stroke-width="7"/>
    <path d="M1490 790L1800 250l310 540z" stroke-width="10"/>
    <circle cx="5880" cy="620" r="330" stroke-width="7"/>
    <path d="M5570 790L5880 250l310 540z" stroke-width="10"/>
  </g>

  <g filter="url(#softGlow)">
    <circle cx="3840" cy="950" r="785" fill="#ff4fb8" opacity=".16"/>
    <circle cx="3840" cy="950" r="760" fill="url(#planet)"/>
    <g clip-path="url(#planetClip)">
      <rect x="3080" y="215" width="1520" height="1470" fill="url(#jupiterBands)" opacity=".48"/>
      <path d="M3050 530 C3420 440 4200 620 4660 500" stroke="#ffe0c7" stroke-width="82" opacity=".26" fill="none"/>
      <path d="M3060 760 C3560 650 4100 900 4660 730" stroke="#7b2b4d" stroke-width="108" opacity=".52" fill="none"/>
      <path d="M3060 1040 C3490 900 4120 1160 4660 1000" stroke="#f2a079" stroke-width="92" opacity=".42" fill="none"/>
      <path d="M3060 1320 C3490 1190 4200 1440 4660 1250" stroke="#522343" stroke-width="120" opacity=".56" fill="none"/>
      <ellipse cx="4260" cy="1180" rx="180" ry="88" fill="#c96563" opacity=".72"/>
    </g>
    <circle cx="3840" cy="950" r="760" fill="none" stroke="url(#neon)" stroke-width="12" opacity=".82"/>
  </g>

  <g transform="translate(3840 215)" stroke="#ff68c5" fill="none" stroke-width="18" filter="url(#softGlow)">
    <path d="M-190 35h380l-38 190h-304z"/>
    <path d="M-165 35l90-125 75 110 75-110 90 125"/>
    <circle cx="-75" cy="-90" r="24" fill="#ff68c5"/>
    <circle cx="75" cy="-90" r="24" fill="#ff68c5"/>
    <circle cx="0" cy="-135" r="24" fill="#ff68c5"/>
    <path d="M-120 265h240"/>
  </g>

  <g stroke="url(#neon)" fill="none" stroke-linecap="round" stroke-linejoin="round" filter="url(#softGlow)">
    <g transform="translate(780 760) scale(1.35)">
      <path d="M250 0 C90 90 80 260 210 330 C365 415 390 590 245 710" stroke-width="38"/>
      <path d="M245 710 C430 565 625 610 715 800 C585 765 470 805 355 910 C260 995 135 1005 35 920 C150 905 230 830 245 710z" fill="#f3289e" stroke-width="20"/>
      <path d="M250 0c45-35 98-43 150-18l-75 54z" fill="#ffc4e6" stroke-width="12"/>
      <circle cx="272" cy="42" r="10" fill="#fff" stroke="none"/>
      <path d="M355 910l-35 430M425 900l42 440" stroke-width="18"/>
    </g>
    <g transform="translate(6900 760) scale(-1.35 1.35)">
      <path d="M250 0 C90 90 80 260 210 330 C365 415 390 590 245 710" stroke-width="38"/>
      <path d="M245 710 C430 565 625 610 715 800 C585 765 470 805 355 910 C260 995 135 1005 35 920 C150 905 230 830 245 710z" fill="#f3289e" stroke-width="20"/>
      <path d="M250 0c45-35 98-43 150-18l-75 54z" fill="#ffc4e6" stroke-width="12"/>
      <circle cx="272" cy="42" r="10" fill="#fff" stroke="none"/>
      <path d="M355 910l-35 430M425 900l42 440" stroke-width="18"/>
    </g>
  </g>

  <g fill="#050309" stroke="#d9369d" stroke-width="8" opacity=".95">
    <path d="M0 2250L900 1550l720 700z"/><path d="M1170 2250l650-480 550 480z"/>
    <path d="M7680 2250L6780 1550l-720 700z"/><path d="M6510 2250l-650-480-550 480z"/>
    <path d="M3030 2250l810-830 810 830z"/>
  </g>
  <path d="M3840 1420V2240" stroke="#ff55bb" stroke-width="22" filter="url(#glow)"/>

  <g font-family="Georgia, 'Times New Roman', serif" text-anchor="middle">
    <text x="3840" y="1050" font-size="610" fill="url(#neon)" stroke="#fff0f8" stroke-width="5" paint-order="stroke" filter="url(#softGlow)">CMB</text>
  </g>

  <g font-family="'Courier New', monospace" text-anchor="middle">
    <text x="3840" y="1320" font-size="112" letter-spacing="24" fill="#f7f4f7">COMPUTATIONAL <tspan fill="#ff64be">METACOGNITIVE</tspan> <tspan fill="#72e6ff">BILINGUALISM</tspan> // CMB</text>
    <text x="3840" y="1475" font-size="92" letter-spacing="19" fill="url(#gold)">♃ JUPITER HUDSON // WISDOMLOVETHEPOET</text>
    <text x="3840" y="1605" font-size="72" letter-spacing="28" fill="#f8e7f3">CODE • POETRY • METACOGNITION • SOVEREIGNTY</text>
  </g>

  <g font-family="'Courier New', monospace" font-size="60" fill="#f8eaf4" letter-spacing="6">
    <text x="470" y="1450">𓁻  PATTERN      ≠ PROOF</text>
    <text x="470" y="1550">⃤   PROFILE      ≠ PERSON</text>
    <text x="470" y="1650">⚡︎  MODEL        ≠ MIND</text>
    <text x="470" y="1750">𓅓  PREDICTION   ≠ DESTINY</text>
    <text x="470" y="1850">♃   CAPABILITY   ≠ AUTHORITY</text>
    <text x="470" y="1950" fill="#72e6ff">🪐  HUMAN_AGENCY &gt; MACHINE_AUTHORITY</text>
  </g>

  <g font-family="'Courier New', monospace" text-anchor="middle" fill="#ff70c6" filter="url(#softGlow)">
    <text x="3840" y="1865" font-size="94" letter-spacing="32">⚯ ͛ ❾¾ ▕⃝⃤ ⚡︎ 𓅓 ♃ 🪐 ⃤</text>
  </g>

  <g font-family="'Courier New', monospace" text-anchor="middle">
    <text x="3840" y="2290" font-size="68" letter-spacing="22" fill="#ff5bbc">𝐍𝐨𝐰 𝐥𝐨𝐚𝐝𝐢𝐧𝐠 . . .</text>
    <text x="3840" y="2405" font-size="76" letter-spacing="28" fill="#7ae7ff">HUMAN ↔ MACHINE LITERACY</text>
  </g>

  <path d="M420 2460H7260" stroke="url(#neon)" stroke-width="5" opacity=".8"/>
  <g fill="#ff5bbc"><circle cx="420" cy="2460" r="12"/><circle cx="7260" cy="2460" r="12"/></g>
</svg>