<svg xmlns="http://www.w3.org/2000/svg" viewBox="0 0 1600 900" role="img" aria-labelledby="title desc">
<title id="title">CMB Algorithmic Cave</title>
<desc id="desc">An original symbolic illustration of a human source, computation light, a bird object, projected shadow, and observers inside a cave.</desc>
<defs>
  <linearGradient id="bg" x1="0" y1="0" x2="1" y2="1"><stop stop-color="#050403"/><stop offset=".55" stop-color="#16100a"/><stop offset="1" stop-color="#030303"/></linearGradient>
  <radialGradient id="fire"><stop stop-color="#ffd67c"/><stop offset=".35" stop-color="#ff9d22"/><stop offset="1" stop-color="#a83200" stop-opacity="0"/></radialGradient>
  <linearGradient id="beam" x1="0" x2="1"><stop stop-color="#ffb13b" stop-opacity=".75"/><stop offset="1" stop-color="#ffd98b" stop-opacity=".07"/></linearGradient>
  <filter id="blur"><feGaussianBlur stdDeviation="18"/></filter>
  <pattern id="grid" width="55" height="55" patternUnits="userSpaceOnUse"><path d="M55 0H0V55" fill="none" stroke="#ffb13b" stroke-opacity=".14" stroke-width="1"/></pattern>
</defs>
<rect width="1600" height="900" fill="url(#bg)"/>
<path d="M0 0h1600v95c-130-45-214 34-338-11-164-59-255 35-403-7-132-37-216-7-339 25C338 149 178 55 0 126Z" fill="#010101"/>
<path d="M0 900V0h128c-66 144-45 244-66 392-16 113 24 231-62 355Z" fill="#000"/>
<path d="M1600 900V0h-105c42 139 12 249 41 389 20 98-4 238 64 370Z" fill="#000"/>
<rect x="760" y="125" width="750" height="650" fill="url(#grid)"/>
<ellipse cx="260" cy="555" rx="280" ry="240" fill="url(#fire)" opacity=".8" filter="url(#blur)"/>
<path d="M184 652c41-77 23-131 74-197 31 61 22 87 72 139 22-58 12-92 55-137 55 105 25 174 5 223H170c-4-7 3-19 14-28Z" fill="#ff9d22"/>
<path d="M203 652c35-61 17-102 58-155 17 49 20 70 59 108 8-37 7-63 37-95 37 75 18 127 0 170H205c-10-7-9-17-2-28Z" fill="#ffe09b"/>
<g fill="#070707" stroke="#c88c45" stroke-width="2">
  <circle cx="394" cy="493" r="33"/><path d="M360 532c35-31 77-28 98 10l38 124-39 10-31-86-9 142h-49l-2-136-41 83-31-17Z"/>
  <path d="M427 523 526 430l13 14-88 108Z"/>
</g>
<g transform="translate(508 384) scale(.84)" fill="#090909" stroke="#ffb13b" stroke-width="2">
  <path d="M0 70 58 30l65 10 55-33-23 51 36 42-63-13-46 35-38-35-55 16 30-40Z"/>
  <path d="m70 52 20-58 18 55M126 55l45-23" fill="none"/>
</g>
<path d="M620 390 1430 210 1430 660 620 465Z" fill="url(#beam)" opacity=".28"/>
<g transform="translate(1110 242) scale(2.15)" fill="#020202" opacity=".82">
  <path d="M0 70 58 30l65 10 55-33-23 51 36 42-63-13-46 35-38-35-55 16 30-40Z"/>
  <path d="M70 52 90-6l18 55 18 6 45-23-30 50-20 49-20-39-31 30-26-35-55 16 30-40Z"/>
</g>
<g fill="#050505" stroke="#7f6f5a" stroke-width="2">
  <circle cx="930" cy="610" r="26"/><path d="M906 641c31-21 64-18 86 16l28 95h-34l-31-72-5 88h-42l-1-78-35 67-30-14Z"/>
  <circle cx="1045" cy="641" r="21"/><path d="M1024 666c25-17 54-14 70 12l21 73h-28l-23-55-3 68h-34l-1-60-28 51-24-12Z"/>
  <circle cx="1318" cy="640" r="31"/><path d="M1288 672c36-31 76-23 96 18l34 92-43 5-28-72-4 88h-51l-2-82-40 70-35-18Z"/>
</g>
<g stroke="#ffb13b" stroke-opacity=".34" fill="none"><path d="M612 414H1465"/><path d="M612 438H1465"/><path d="M612 462H1465"/></g>
<g font-family="monospace" font-size="24" letter-spacing="4" fill="#ffd27a"><text x="230" y="810">COMPUTATION</text><text x="505" y="330">SOURCE OBJECT</text><text x="1215" y="165">PROJECTED SHADOW</text></g>
<g font-family="monospace" font-size="18" fill="#b9a589"><text x="920" y="835">PATTERN != PROOF</text><text x="1160" y="835">PROFILE != PERSON</text></g>
</svg>
